<svg id="svg" version="1.1" width="400" height="700" xmlns="http://www.w3.org/2000/svg"
     style="display: block;">
    <g id="svgg">
        <path id="path0" d="" stroke="none" fill="#000000" fill-rule="evenodd"></path>
        <path id="path1"
              d="M313.198 624.547 C 313.198 629.343,313.235 631.304,313.279 628.907 C 313.324 626.509,313.324 622.586,313.279 620.188 C 313.235 617.790,313.198 619.752,313.198 624.547 "
              stroke="none" fill="#6d6d6d" fill-rule="evenodd"></path>
        <path id="path2"
              d="M184.574 442.455 C 184.574 442.565,196.338 442.656,210.715 442.656 C 225.093 442.656,236.912 442.565,236.981 442.455 C 237.049 442.344,225.286 442.254,210.840 442.254 C 196.394 442.254,184.574 442.344,184.574 442.455 M251.308 442.588 C 253.706 442.633,257.629 442.633,260.027 442.588 C 262.425 442.544,260.463 442.508,255.667 442.508 C 250.872 442.508,248.910 442.544,251.308 442.588 M293.310 442.588 C 295.495 442.634,298.996 442.633,301.090 442.588 C 303.183 442.543,301.395 442.506,297.116 442.506 C 292.837 442.506,291.124 442.543,293.310 442.588 M319.584 442.588 C 322.056 442.633,326.100 442.633,328.571 442.588 C 331.043 442.544,329.021 442.508,324.078 442.508 C 319.135 442.508,317.113 442.544,319.584 442.588 M310.865 604.621 C 311.345 604.680,312.129 604.680,312.609 604.621 C 313.089 604.561,312.696 604.512,311.737 604.512 C 310.778 604.512,310.386 604.561,310.865 604.621 M95.171 605.689 C 95.503 605.753,96.046 605.753,96.378 605.689 C 96.710 605.625,96.439 605.573,95.775 605.573 C 95.111 605.573,94.839 605.625,95.171 605.689 M314.219 607.831 C 314.477 607.898,314.899 607.898,315.158 607.831 C 315.416 607.763,315.205 607.708,314.688 607.708 C 314.172 607.708,313.960 607.763,314.219 607.831 M316.097 607.831 C 316.355 607.898,316.777 607.898,317.036 607.831 C 317.294 607.763,317.082 607.708,316.566 607.708 C 316.050 607.708,315.838 607.763,316.097 607.831 M266.197 608.099 C 266.455 608.167,266.878 608.167,267.136 608.099 C 267.394 608.032,267.183 607.976,266.667 607.976 C 266.150 607.976,265.939 608.032,266.197 608.099 M206.103 608.367 C 206.362 608.435,206.784 608.435,207.042 608.367 C 207.300 608.300,207.089 608.245,206.573 608.245 C 206.056 608.245,205.845 608.300,206.103 608.367 M98.796 608.911 C 99.204 608.973,99.808 608.972,100.138 608.908 C 100.468 608.844,100.134 608.794,99.396 608.796 C 98.659 608.798,98.389 608.850,98.796 608.911 M95.976 615.892 C 96.751 615.946,98.018 615.946,98.793 615.892 C 99.567 615.838,98.934 615.793,97.384 615.793 C 95.835 615.793,95.201 615.838,95.976 615.892 M126.835 615.891 C 127.466 615.948,128.432 615.947,128.981 615.889 C 129.530 615.832,129.014 615.785,127.834 615.786 C 126.653 615.787,126.204 615.834,126.835 615.891 M136.217 615.891 C 136.844 615.947,137.871 615.947,138.498 615.891 C 139.125 615.834,138.612 615.788,137.357 615.788 C 136.103 615.788,135.590 615.834,136.217 615.891 M143.461 615.891 C 144.088 615.947,145.114 615.947,145.741 615.891 C 146.368 615.834,145.855 615.788,144.601 615.788 C 143.347 615.788,142.834 615.834,143.461 615.891 M154.467 615.891 C 155.098 615.948,156.064 615.947,156.613 615.889 C 157.163 615.832,156.647 615.785,155.466 615.786 C 154.286 615.787,153.836 615.834,154.467 615.891 M161.979 615.891 C 162.610 615.948,163.576 615.947,164.125 615.889 C 164.675 615.832,164.158 615.785,162.978 615.786 C 161.797 615.787,161.348 615.834,161.979 615.891 M167.480 615.892 C 168.185 615.947,169.271 615.946,169.894 615.890 C 170.517 615.834,169.940 615.789,168.612 615.789 C 167.284 615.790,166.774 615.836,167.480 615.892 M179.142 615.891 C 179.769 615.947,180.795 615.947,181.422 615.891 C 182.049 615.834,181.536 615.788,180.282 615.788 C 179.027 615.788,178.514 615.834,179.142 615.891 M185.701 615.894 C 186.984 615.943,189.157 615.943,190.530 615.894 C 191.902 615.845,190.852 615.805,188.196 615.805 C 185.540 615.805,184.417 615.845,185.701 615.894 M195.695 616.032 C 195.624 616.218,195.598 620.171,195.637 624.818 L 195.708 633.266 197.720 633.287 L 199.732 633.307 197.787 633.208 L 195.842 633.109 195.842 624.546 L 195.842 615.983 198.323 615.894 L 200.805 615.806 198.315 615.750 C 196.518 615.710,195.789 615.788,195.695 616.032 M226.626 615.892 C 227.401 615.946,228.669 615.946,229.443 615.892 C 230.218 615.838,229.584 615.793,228.035 615.793 C 226.486 615.793,225.852 615.838,226.626 615.892 M238.438 615.891 C 239.069 615.948,240.034 615.947,240.584 615.889 C 241.133 615.832,240.617 615.785,239.437 615.786 C 238.256 615.787,237.807 615.834,238.438 615.891 M269.939 615.894 C 271.223 615.943,273.396 615.943,274.768 615.894 C 276.141 615.845,275.091 615.805,272.435 615.805 C 269.779 615.805,268.656 615.845,269.939 615.894 M280.960 615.892 C 281.666 615.947,282.752 615.946,283.375 615.890 C 283.998 615.834,283.421 615.789,282.093 615.789 C 280.765 615.790,280.255 615.836,280.960 615.892 M291.523 615.895 C 291.454 616.006,292.141 616.063,293.050 616.022 C 295.827 615.895,296.156 615.777,293.845 615.734 C 292.637 615.712,291.592 615.785,291.523 615.895 M304.158 615.891 C 304.785 615.947,305.812 615.947,306.439 615.891 C 307.066 615.834,306.553 615.788,305.298 615.788 C 304.044 615.788,303.531 615.834,304.158 615.891 M309.792 615.891 C 310.419 615.947,311.445 615.947,312.072 615.891 C 312.700 615.834,312.186 615.788,310.932 615.788 C 309.678 615.788,309.165 615.834,309.792 615.891 M189.077 629.306 C 189.856 629.360,191.064 629.360,191.759 629.305 C 192.455 629.250,191.818 629.205,190.342 629.206 C 188.867 629.207,188.297 629.252,189.077 629.306 M273.315 629.306 C 274.095 629.360,275.302 629.360,275.998 629.305 C 276.694 629.250,276.056 629.205,274.581 629.206 C 273.105 629.207,272.536 629.252,273.315 629.306 M174.514 633.132 L 172.904 633.310 174.431 633.355 C 175.271 633.380,176.032 633.280,176.123 633.132 C 176.215 632.985,176.252 632.884,176.206 632.909 C 176.161 632.934,175.399 633.034,174.514 633.132 M203.055 633.211 C 203.173 633.328,204.284 633.387,205.525 633.343 L 207.780 633.262 205.311 633.130 C 203.952 633.057,202.938 633.094,203.055 633.211 M90.617 633.329 C 91.248 633.386,92.214 633.385,92.764 633.327 C 93.313 633.269,92.797 633.223,91.616 633.224 C 90.436 633.225,89.986 633.272,90.617 633.329 M102.146 633.329 C 102.773 633.385,103.799 633.385,104.427 633.329 C 105.054 633.272,104.541 633.226,103.286 633.226 C 102.032 633.226,101.519 633.272,102.146 633.329 M143.736 633.329 C 144.367 633.386,145.333 633.385,145.882 633.327 C 146.432 633.269,145.915 633.223,144.735 633.224 C 143.555 633.225,143.105 633.272,143.736 633.329 M154.594 633.328 C 155.148 633.385,156.053 633.385,156.606 633.328 C 157.160 633.270,156.707 633.222,155.600 633.222 C 154.494 633.222,154.041 633.270,154.594 633.328 M161.846 633.330 C 162.551 633.385,163.638 633.384,164.260 633.328 C 164.883 633.272,164.306 633.227,162.978 633.227 C 161.650 633.228,161.140 633.274,161.846 633.330 M185.969 633.332 C 187.253 633.381,189.426 633.381,190.798 633.332 C 192.170 633.283,191.120 633.243,188.464 633.243 C 185.808 633.243,184.685 633.283,185.969 633.332 M221.000 633.329 C 221.631 633.386,222.597 633.385,223.146 633.327 C 223.695 633.269,223.179 633.223,221.999 633.224 C 220.818 633.225,220.369 633.272,221.000 633.329 M232.529 633.329 C 233.156 633.385,234.182 633.385,234.809 633.329 C 235.436 633.272,234.923 633.226,233.669 633.226 C 232.414 633.226,231.901 633.272,232.529 633.329 M239.638 633.332 C 240.929 633.381,243.042 633.381,244.333 633.332 C 245.624 633.283,244.567 633.242,241.985 633.242 C 239.403 633.242,238.347 633.283,239.638 633.332 M269.953 633.332 C 271.244 633.381,273.357 633.381,274.648 633.332 C 275.939 633.283,274.883 633.242,272.300 633.242 C 269.718 633.242,268.662 633.283,269.953 633.332 M280.952 633.328 C 281.506 633.385,282.411 633.385,282.964 633.328 C 283.518 633.270,283.065 633.222,281.958 633.222 C 280.852 633.222,280.399 633.270,280.952 633.328 M288.464 633.329 C 289.165 633.385,290.312 633.385,291.013 633.329 C 291.714 633.274,291.140 633.229,289.738 633.229 C 288.337 633.229,287.763 633.274,288.464 633.329 M298.518 633.326 C 298.995 633.385,299.840 633.386,300.396 633.328 C 300.953 633.270,300.563 633.221,299.531 633.220 C 298.498 633.219,298.042 633.266,298.518 633.326 M309.792 633.329 C 310.419 633.385,311.445 633.385,312.072 633.329 C 312.700 633.272,312.186 633.226,310.932 633.226 C 309.678 633.226,309.165 633.272,309.792 633.329 "
              stroke="none" fill="#8d8d8d" fill-rule="evenodd"></path>
        <path id="path3"
              d="M278.740 192.871 C 280.510 196.754,281.958 199.982,281.958 200.044 C 281.958 200.105,280.800 198.823,279.384 197.194 C 277.148 194.623,276.250 193.705,276.680 194.433 C 276.903 194.811,279.812 200.994,279.812 201.091 C 279.812 201.144,280.537 202.715,281.422 204.583 C 282.307 206.450,283.032 208.011,283.032 208.050 C 283.032 208.137,285.324 213.051,288.645 220.084 C 289.542 221.982,290.275 223.574,290.275 223.622 C 290.275 223.671,290.833 224.895,291.515 226.342 C 292.196 227.790,293.102 229.728,293.527 230.651 C 295.482 234.894,295.925 235.846,297.085 238.290 C 297.766 239.724,298.323 240.947,298.323 241.006 C 298.323 241.065,299.120 242.789,300.093 244.836 C 301.066 246.883,302.141 249.162,302.481 249.899 C 302.822 250.637,303.776 252.669,304.602 254.415 C 305.428 256.160,306.103 257.634,306.103 257.691 C 306.103 257.747,306.948 259.561,307.981 261.722 C 309.014 263.884,309.859 265.700,309.859 265.757 C 309.859 265.815,310.447 267.100,311.166 268.612 C 311.885 270.124,312.746 271.965,313.080 272.703 C 314.190 275.157,316.118 279.323,318.109 283.568 C 318.767 284.970,319.943 287.505,320.723 289.202 C 322.175 292.360,323.499 295.200,325.581 299.619 C 326.230 300.996,326.761 302.158,326.761 302.200 C 326.761 302.243,327.545 303.925,328.504 305.939 C 329.463 307.952,330.248 309.645,330.248 309.699 C 330.248 309.754,330.958 311.291,331.826 313.115 C 332.694 314.939,333.649 316.975,333.949 317.639 C 334.566 319.009,336.083 322.269,337.756 325.822 C 338.382 327.150,340.401 331.496,342.243 335.480 C 344.085 339.463,345.992 343.568,346.480 344.601 C 346.968 345.634,347.636 347.082,347.964 347.820 C 348.293 348.558,349.161 350.429,349.894 351.979 C 350.626 353.528,351.531 355.459,351.904 356.271 C 352.277 357.082,354.150 361.127,356.066 365.258 C 357.982 369.390,359.913 373.555,360.357 374.514 C 360.801 375.473,361.560 377.103,362.043 378.135 C 362.526 379.168,363.191 380.617,363.521 381.355 C 363.851 382.093,365.252 385.095,366.635 388.026 C 368.017 390.957,369.148 393.390,369.148 393.431 C 369.148 393.473,369.856 394.998,370.722 396.821 C 371.588 398.643,372.568 400.738,372.901 401.476 C 373.234 402.213,374.216 404.312,375.083 406.139 C 375.950 407.966,376.660 409.508,376.660 409.567 C 376.660 409.678,377.533 411.552,380.182 417.133 C 381.049 418.957,381.757 420.489,381.757 420.537 C 381.757 420.586,382.315 421.809,382.997 423.257 C 383.678 424.704,384.596 426.673,385.036 427.632 C 385.475 428.592,386.172 430.101,386.584 430.986 C 387.896 433.804,391.144 440.770,392.135 442.890 C 392.661 444.015,393.854 446.604,394.786 448.643 L 396.481 452.349 394.993 455.484 C 392.933 459.826,391.891 462.040,390.803 464.386 C 390.290 465.493,389.178 467.847,388.331 469.618 C 387.485 471.388,386.398 473.682,385.914 474.715 C 385.431 475.748,384.298 478.134,383.396 480.018 C 382.495 481.903,381.757 483.491,381.757 483.548 C 381.757 483.605,380.928 485.383,379.915 487.500 C 377.638 492.254,376.268 495.155,375.311 497.250 C 374.906 498.135,373.777 500.526,372.801 502.563 C 371.825 504.600,370.771 506.833,370.459 507.526 C 370.147 508.219,369.288 510.054,368.550 511.603 C 367.812 513.152,366.873 515.144,366.463 516.030 C 366.053 516.915,364.920 519.312,363.945 521.357 C 362.971 523.402,362.173 525.109,362.173 525.151 C 362.173 525.192,361.345 526.960,360.332 529.079 C 359.320 531.197,358.244 533.474,357.941 534.138 C 357.637 534.802,356.521 537.156,355.460 539.370 C 354.398 541.583,352.832 544.903,351.979 546.747 C 351.126 548.592,349.509 552.016,348.386 554.356 C 347.263 556.697,346.345 558.643,346.345 558.682 C 346.345 558.721,345.691 560.134,344.892 561.821 C 344.093 563.509,343.019 565.787,342.507 566.885 C 341.994 567.982,340.883 570.329,340.039 572.099 C 339.194 573.870,338.110 576.164,337.629 577.197 C 337.148 578.229,336.064 580.523,335.221 582.294 C 334.378 584.064,333.203 586.539,332.611 587.793 C 332.020 589.048,331.367 590.424,331.160 590.853 C 330.625 591.964,330.686 592.310,331.707 593.950 L 332.617 595.412 333.685 593.146 C 334.273 591.899,335.382 589.551,336.150 587.928 C 336.919 586.304,337.903 584.206,338.337 583.264 C 338.772 582.323,339.799 580.150,340.621 578.435 C 341.442 576.721,342.933 573.568,343.935 571.429 C 344.936 569.289,346.384 566.211,347.151 564.588 C 348.855 560.985,350.016 558.516,351.252 555.869 C 352.329 553.561,354.107 549.785,355.672 546.479 C 359.013 539.424,359.612 538.154,360.292 536.687 C 360.702 535.801,361.790 533.508,362.710 531.590 C 363.629 529.671,364.683 527.438,365.052 526.626 C 365.420 525.815,366.297 523.944,367.001 522.468 C 370.840 514.418,371.563 512.884,371.563 512.785 C 371.563 512.725,372.300 511.137,373.202 509.256 C 374.892 505.729,376.606 502.109,377.805 499.531 C 378.182 498.719,379.239 496.486,380.153 494.567 C 381.067 492.649,382.118 490.416,382.489 489.604 C 382.860 488.793,383.799 486.801,384.577 485.178 C 385.355 483.555,386.294 481.563,386.664 480.751 C 387.302 479.355,388.541 476.734,391.613 470.288 C 392.352 468.739,393.229 466.868,393.563 466.130 C 394.559 463.927,395.814 461.264,397.860 457.009 C 400.234 452.074,400.232 452.498,397.898 447.653 C 396.841 445.459,395.976 443.606,395.976 443.536 C 395.976 443.466,395.537 442.485,395.000 441.356 C 393.857 438.952,392.134 435.251,391.358 433.535 C 391.058 432.871,390.301 431.241,389.676 429.913 C 389.051 428.585,388.204 426.774,387.795 425.889 C 387.387 425.003,386.629 423.374,386.111 422.267 C 384.316 418.425,383.048 415.688,382.509 414.487 C 382.211 413.823,381.452 412.193,380.822 410.865 C 380.192 409.537,379.403 407.847,379.070 407.109 C 378.737 406.372,377.756 404.275,376.891 402.450 C 376.026 400.624,375.319 399.096,375.319 399.054 C 375.319 399.011,374.762 397.788,374.081 396.336 C 373.401 394.884,372.509 392.971,372.100 392.086 C 371.692 391.201,370.846 389.390,370.221 388.062 C 368.876 385.203,364.922 376.682,361.631 369.551 C 360.337 366.747,358.772 363.367,358.152 362.039 C 357.533 360.711,356.302 358.055,355.417 356.137 C 354.531 354.219,353.407 351.804,352.918 350.771 C 350.797 346.288,349.458 343.432,348.862 342.119 C 347.640 339.427,346.928 337.881,345.867 335.614 C 344.796 333.324,343.499 330.542,341.990 327.297 C 341.544 326.338,340.651 324.429,340.006 323.056 C 339.361 321.682,338.833 320.516,338.833 320.465 C 338.833 320.414,338.242 319.124,337.521 317.597 C 336.799 316.071,335.906 314.158,335.538 313.347 C 335.169 312.535,334.354 310.786,333.727 309.460 C 332.102 306.023,327.506 296.124,325.630 292.019 C 324.754 290.101,323.516 287.445,322.881 286.117 C 322.245 284.789,321.032 282.193,320.186 280.349 C 319.339 278.504,317.770 275.124,316.700 272.837 C 315.629 270.550,314.482 268.075,314.151 267.337 C 313.819 266.600,312.672 264.125,311.602 261.838 C 309.536 257.425,308.301 254.768,307.298 252.582 C 306.960 251.844,305.949 249.689,305.052 247.793 C 304.154 245.897,303.421 244.308,303.421 244.262 C 303.421 244.215,302.832 242.930,302.114 241.405 C 301.395 239.880,300.504 237.968,300.135 237.156 C 299.765 236.345,298.920 234.534,298.255 233.132 C 297.591 231.730,295.992 228.290,294.702 225.486 C 293.411 222.683,291.706 219.018,290.913 217.343 C 290.119 215.668,289.470 214.259,289.470 214.212 C 289.470 214.165,288.853 212.819,288.099 211.221 C 286.234 207.272,285.077 204.785,282.756 199.732 C 279.962 193.649,276.419 186.713,275.774 186.064 C 275.635 185.924,276.970 188.987,278.740 192.871 M203.834 340.729 L 203.116 342.354 204.136 344.551 C 204.697 345.759,205.523 347.532,205.970 348.491 C 209.254 355.524,210.389 357.979,211.183 359.759 C 211.479 360.423,212.144 361.871,212.661 362.978 C 213.897 365.623,214.980 367.958,215.930 370.020 C 216.354 370.942,217.183 372.723,217.772 373.977 C 218.361 375.231,219.431 377.525,220.150 379.074 C 220.868 380.624,221.715 382.435,222.031 383.099 L 222.606 384.306 203.121 384.381 L 183.635 384.456 183.049 385.789 L 182.462 387.123 204.596 387.123 L 226.730 387.123 226.543 386.519 C 226.440 386.187,225.874 384.889,225.285 383.635 C 222.841 378.428,222.166 376.983,221.462 375.453 C 220.028 372.333,219.219 370.595,217.866 367.717 C 217.114 366.118,216.499 364.772,216.499 364.726 C 216.499 364.680,215.825 363.212,215.001 361.463 C 214.178 359.714,213.280 357.800,213.007 357.210 C 212.733 356.620,211.886 354.809,211.124 353.186 C 210.362 351.563,208.864 348.303,207.795 345.942 C 206.725 343.581,205.558 341.077,205.201 340.377 L 204.552 339.103 203.834 340.729 M59.949 342.589 C 58.696 345.344,56.982 349.032,55.272 352.649 C 54.575 354.125,53.820 355.755,53.594 356.271 C 53.109 357.379,52.542 358.614,49.160 365.929 C 43.797 377.526,43.084 379.071,41.050 383.501 C 39.899 386.009,38.535 388.967,38.020 390.074 C 36.919 392.439,29.004 409.538,27.837 412.072 C 27.395 413.032,26.757 414.420,26.418 415.158 C 25.034 418.169,23.884 420.644,22.867 422.803 C 22.276 424.058,21.162 426.472,20.391 428.169 C 19.620 429.866,18.399 432.496,17.677 434.013 C 16.955 435.530,16.365 436.813,16.365 436.865 C 16.365 436.916,15.778 438.209,15.060 439.740 C 14.343 441.270,13.427 443.246,13.024 444.131 C 12.622 445.017,12.062 446.198,11.780 446.755 C 11.082 448.137,11.086 448.145,12.635 448.812 C 14.276 449.518,13.961 449.807,15.746 445.958 C 16.554 444.216,17.567 442.033,17.997 441.107 C 18.427 440.181,18.779 439.375,18.779 439.316 C 18.779 439.257,19.489 437.721,20.355 435.902 C 22.659 431.069,23.798 428.624,25.114 425.688 C 25.758 424.250,26.404 422.862,26.549 422.603 C 26.859 422.049,28.974 417.424,28.974 417.299 C 28.974 417.252,29.819 415.443,30.852 413.280 C 31.885 411.116,32.730 409.299,32.730 409.240 C 32.730 409.182,33.348 407.834,34.103 406.244 C 34.859 404.654,36.364 401.399,37.448 399.010 C 38.532 396.621,40.100 393.240,40.931 391.498 C 41.763 389.756,42.841 387.412,43.327 386.291 C 43.813 385.170,44.338 384.023,44.493 383.742 C 44.648 383.462,45.130 382.448,45.565 381.489 C 45.999 380.530,46.850 378.682,47.456 377.382 C 48.062 376.082,48.558 374.977,48.558 374.926 C 48.558 374.875,49.403 373.060,50.436 370.892 C 51.469 368.724,52.314 366.914,52.314 366.869 C 52.314 366.824,52.813 365.719,53.423 364.413 C 55.074 360.877,57.186 356.308,58.551 353.320 C 58.922 352.508,60.386 349.324,61.806 346.244 C 63.225 343.164,64.386 340.609,64.386 340.566 C 64.386 340.523,63.621 340.448,62.686 340.398 L 60.985 340.309 59.949 342.589 M202.692 394.433 C 202.288 395.355,201.738 396.593,201.469 397.183 C 201.200 397.773,200.680 398.981,200.313 399.866 C 199.946 400.751,199.152 402.539,198.549 403.839 C 197.945 405.139,197.451 406.247,197.451 406.301 C 197.451 406.390,193.852 414.587,192.615 417.315 C 192.344 417.912,191.560 419.723,190.873 421.339 C 190.185 422.956,189.459 424.641,189.260 425.084 C 189.061 425.526,187.732 428.545,186.306 431.791 C 184.881 435.037,183.003 439.304,182.132 441.273 C 181.262 443.242,180.550 444.962,180.550 445.096 C 180.550 445.239,192.436 445.339,209.606 445.339 L 238.663 445.339 239.159 444.199 C 240.653 440.762,244.195 432.751,244.525 432.059 C 244.736 431.616,245.206 430.530,245.570 429.645 C 245.933 428.759,246.613 427.190,247.081 426.157 C 248.206 423.672,248.454 423.100,249.648 420.255 C 250.205 418.927,250.745 417.720,250.849 417.572 C 250.952 417.425,251.547 416.097,252.171 414.621 C 252.795 413.146,253.606 411.274,253.973 410.463 C 255.150 407.862,256.776 404.134,259.589 397.586 C 260.382 395.741,261.152 394.022,261.300 393.766 C 261.448 393.510,261.569 393.178,261.569 393.028 C 261.569 392.849,257.631 392.759,249.966 392.764 L 238.364 392.771 237.575 394.575 C 236.556 396.902,235.530 399.203,234.644 401.148 C 234.255 402.001,233.937 402.760,233.937 402.836 C 233.937 402.957,233.052 404.951,231.920 407.378 C 231.714 407.820,231.103 409.209,230.563 410.463 C 230.022 411.717,229.420 413.105,229.225 413.548 C 228.355 415.523,226.330 420.143,224.140 425.151 L 221.764 430.584 216.046 430.584 C 212.902 430.584,210.329 430.513,210.329 430.427 C 210.329 430.262,211.496 427.555,212.780 424.742 C 213.202 423.816,213.548 423.004,213.548 422.938 C 213.548 422.871,213.910 422.026,214.353 421.060 C 214.795 420.093,215.158 419.252,215.158 419.191 C 215.158 419.130,215.633 418.068,216.215 416.833 C 216.797 415.597,217.530 413.932,217.845 413.133 C 218.161 412.333,218.724 411.013,219.098 410.199 C 219.472 409.385,221.019 405.882,222.535 402.414 C 224.051 398.947,225.607 395.424,225.993 394.585 C 226.378 393.746,226.693 392.991,226.693 392.908 C 226.693 392.825,221.458 392.757,215.060 392.757 L 203.427 392.757 202.692 394.433 M265.062 394.162 C 264.732 394.938,264.176 396.204,263.827 396.975 C 263.478 397.745,262.404 400.220,261.440 402.474 C 260.475 404.728,259.565 406.785,259.417 407.044 C 259.269 407.304,258.796 408.402,258.366 409.485 C 257.936 410.567,257.229 412.226,256.796 413.171 C 255.323 416.386,254.863 417.432,254.863 417.562 C 254.863 417.634,254.508 418.467,254.075 419.413 C 253.641 420.359,252.540 422.867,251.627 424.987 C 249.552 429.804,249.039 430.980,248.426 432.327 C 248.157 432.918,247.187 435.151,246.270 437.290 C 245.353 439.430,244.389 441.663,244.127 442.254 C 243.865 442.844,243.463 443.779,243.234 444.333 L 242.817 445.339 254.466 445.339 L 266.114 445.339 266.793 443.855 C 267.166 443.039,267.471 442.319,267.471 442.254 C 267.471 442.154,269.614 437.186,270.826 434.474 C 271.024 434.031,271.430 433.065,271.729 432.327 C 272.029 431.590,273.045 429.212,273.988 427.043 L 275.702 423.100 276.137 423.958 C 276.376 424.429,277.070 425.721,277.680 426.828 C 278.290 427.934,279.246 429.685,279.804 430.718 C 280.362 431.751,281.358 433.561,282.019 434.742 C 282.679 435.922,283.670 437.733,284.222 438.766 C 284.774 439.799,285.806 441.670,286.516 442.924 L 287.806 445.205 297.230 445.275 C 306.025 445.341,306.665 445.314,306.825 444.873 C 307.030 444.306,309.174 439.234,309.855 437.703 C 310.120 437.107,310.904 435.292,311.597 433.669 C 316.352 422.524,318.542 417.423,318.995 416.435 C 319.282 415.809,319.517 415.244,319.517 415.179 C 319.517 415.114,319.870 414.298,320.301 413.365 C 320.732 412.433,321.344 411.006,321.661 410.195 C 321.978 409.383,322.468 408.236,322.749 407.646 C 323.031 407.056,324.538 403.563,326.098 399.885 C 327.657 396.207,328.996 393.098,329.072 392.975 C 329.148 392.852,323.927 392.782,317.470 392.821 L 305.730 392.891 304.710 395.305 C 304.149 396.633,303.522 398.082,303.316 398.524 C 302.859 399.508,302.461 400.431,301.001 403.890 C 300.378 405.366,299.627 407.116,299.333 407.780 C 298.611 409.407,298.262 410.228,297.249 412.685 L 296.388 414.773 294.853 412.014 C 294.009 410.497,292.978 408.652,292.563 407.914 C 292.147 407.176,291.444 405.909,291.002 405.097 C 290.559 404.286,289.748 402.837,289.199 401.878 C 288.151 400.044,287.508 398.902,285.428 395.171 L 284.157 392.891 274.910 392.820 L 265.663 392.750 265.062 394.162 M333.605 393.728 C 333.382 394.263,333.199 394.743,333.199 394.795 C 333.199 394.848,332.777 395.793,332.260 396.897 C 331.744 398.000,331.321 398.964,331.321 399.040 C 331.321 399.164,328.663 405.291,327.698 407.393 C 327.491 407.844,326.888 409.225,326.358 410.463 C 325.829 411.700,325.231 413.082,325.030 413.533 C 323.413 417.159,321.655 421.176,321.443 421.730 C 321.229 422.291,318.294 428.989,316.564 432.864 C 316.301 433.454,315.769 434.691,315.384 435.612 C 314.998 436.534,314.396 437.922,314.045 438.698 C 313.695 439.473,313.008 441.073,312.519 442.254 C 312.030 443.434,311.533 444.514,311.415 444.655 C 311.297 444.795,311.201 445.007,311.201 445.127 C 311.201 445.246,316.478 445.313,322.928 445.274 L 334.656 445.205 335.650 442.924 C 336.197 441.670,336.883 440.101,337.174 439.437 C 337.964 437.633,338.284 436.877,340.978 430.449 C 342.339 427.203,343.732 423.944,344.074 423.206 C 344.416 422.468,345.140 420.778,345.683 419.450 C 346.226 418.122,346.972 416.372,347.342 415.560 C 347.711 414.748,348.779 412.247,349.716 410.002 C 350.652 407.757,351.725 405.248,352.101 404.428 C 352.476 403.607,352.783 402.877,352.783 402.806 C 352.783 402.735,353.021 402.165,353.311 401.540 C 353.601 400.914,354.370 399.135,355.018 397.586 C 355.667 396.036,356.397 394.316,356.641 393.763 L 357.083 392.757 345.547 392.757 L 334.011 392.757 333.605 393.728 M222.085 396.714 C 221.780 397.414,221.234 398.652,220.870 399.463 C 220.506 400.275,220.046 401.301,219.848 401.744 C 219.650 402.186,218.810 404.118,217.982 406.036 C 217.153 407.954,216.365 409.765,216.231 410.060 C 215.054 412.636,211.402 420.949,211.402 421.051 C 211.402 421.122,211.029 421.998,210.573 422.998 C 209.499 425.355,208.588 427.426,206.617 431.992 L 206.066 433.266 214.837 433.261 L 223.608 433.256 224.735 430.645 C 226.852 425.741,229.131 420.524,229.624 419.450 C 229.895 418.860,230.869 416.631,231.789 414.497 C 232.708 412.362,233.762 409.948,234.132 409.131 C 234.501 408.314,235.091 407.008,235.443 406.229 C 235.795 405.450,236.083 404.765,236.083 404.706 C 236.083 404.646,236.465 403.775,236.932 402.769 C 237.398 401.762,238.286 399.732,238.904 398.256 L 240.027 395.573 248.768 395.503 L 257.508 395.432 256.882 396.978 C 256.537 397.829,255.747 399.671,255.127 401.073 C 254.027 403.557,251.398 409.520,250.692 411.133 C 250.499 411.576,249.909 412.877,249.382 414.023 C 248.855 415.170,248.424 416.162,248.424 416.228 C 248.424 416.330,246.516 420.699,244.615 424.950 C 244.318 425.614,243.892 426.579,243.669 427.096 C 243.446 427.612,243.102 428.404,242.904 428.855 C 242.707 429.306,241.921 431.117,241.158 432.879 C 240.396 434.641,239.292 437.170,238.707 438.498 C 238.122 439.826,237.471 441.304,237.262 441.784 L 236.881 442.656 210.727 442.656 C 196.343 442.656,184.574 442.610,184.574 442.554 C 184.574 442.455,185.216 440.998,186.756 437.607 C 187.179 436.675,187.525 435.863,187.525 435.804 C 187.525 435.745,188.551 433.396,189.805 430.584 C 191.060 427.771,192.086 425.418,192.086 425.354 C 192.086 425.291,192.629 424.076,193.293 422.655 C 193.957 421.234,194.500 420.000,194.500 419.912 C 194.500 419.825,194.726 419.263,195.002 418.663 C 196.091 416.294,196.647 415.023,196.647 414.899 C 196.647 414.828,197.069 413.901,197.586 412.840 C 198.102 411.779,198.524 410.821,198.524 410.711 C 198.524 410.601,198.931 409.625,199.428 408.542 C 199.924 407.459,201.146 404.702,202.143 402.414 C 203.140 400.127,204.236 397.622,204.579 396.848 L 205.202 395.439 213.920 395.439 L 222.639 395.439 222.085 396.714 M283.596 397.518 C 284.223 398.662,285.421 400.805,286.259 402.280 C 287.097 403.756,288.224 405.776,288.763 406.770 C 289.302 407.763,290.327 409.574,291.041 410.794 C 291.755 412.013,292.762 413.796,293.279 414.755 C 293.797 415.714,294.604 417.163,295.074 417.975 C 295.544 418.786,296.064 419.722,296.230 420.054 C 296.645 420.885,296.817 420.816,297.235 419.651 C 297.433 419.098,297.872 418.042,298.210 417.304 C 298.547 416.566,299.566 414.212,300.474 412.072 C 301.382 409.933,302.289 407.820,302.490 407.378 C 302.691 406.935,303.597 404.822,304.505 402.683 C 305.412 400.543,306.370 398.310,306.633 397.720 C 306.897 397.129,307.195 396.375,307.297 396.043 L 307.481 395.439 316.182 395.439 C 320.967 395.439,324.883 395.479,324.883 395.527 C 324.883 395.769,322.605 401.192,321.202 404.292 C 320.834 405.104,320.194 406.613,319.779 407.646 C 319.110 409.311,318.421 410.908,317.231 413.548 C 317.031 413.991,316.546 415.137,316.153 416.097 C 315.759 417.056,315.215 418.333,314.943 418.935 C 314.670 419.537,314.213 420.624,313.926 421.350 C 313.639 422.075,313.030 423.487,312.571 424.487 C 312.112 425.487,311.737 426.358,311.737 426.424 C 311.737 426.490,311.448 427.181,311.094 427.960 C 310.740 428.739,310.124 430.161,309.725 431.120 C 308.991 432.883,308.813 433.292,307.098 437.156 C 306.574 438.337,305.857 440.027,305.504 440.912 L 304.863 442.522 297.188 442.593 L 289.513 442.664 287.838 439.642 C 286.916 437.980,285.141 434.748,283.893 432.461 C 282.645 430.174,281.319 427.760,280.947 427.096 C 280.575 426.432,279.906 425.225,279.460 424.413 C 279.014 423.602,278.126 421.987,277.487 420.826 C 276.848 419.664,276.325 418.657,276.325 418.588 C 276.325 418.518,276.084 418.155,275.789 417.781 L 275.253 417.100 274.826 418.141 C 274.331 419.347,272.195 424.316,271.495 425.889 C 271.233 426.479,270.204 428.893,269.208 431.254 C 268.212 433.615,267.128 436.150,266.798 436.888 C 266.468 437.626,265.870 439.014,265.468 439.973 C 265.067 440.932,264.646 441.898,264.533 442.119 C 264.302 442.573,247.082 442.884,247.082 442.434 C 247.082 442.308,247.851 440.457,248.790 438.322 C 250.803 433.744,251.128 433.009,251.880 431.324 C 252.193 430.625,252.448 429.992,252.448 429.917 C 252.448 429.842,252.882 428.845,253.413 427.701 C 253.944 426.557,254.600 425.062,254.872 424.380 C 255.143 423.697,255.607 422.611,255.903 421.965 C 256.520 420.620,264.384 402.560,265.410 400.134 C 265.784 399.249,266.400 397.830,266.778 396.982 L 267.465 395.439 274.961 395.439 L 282.457 395.439 283.596 397.518 M352.783 395.590 C 352.783 395.674,352.286 396.941,351.677 398.407 L 350.571 401.073 342.019 401.073 C 337.316 401.073,333.467 401.028,333.467 400.972 C 333.467 400.854,335.224 396.917,335.667 396.043 L 335.973 395.439 344.378 395.439 C 349.001 395.439,352.783 395.507,352.783 395.590 M348.329 406.237 C 347.806 407.455,347.010 409.356,346.559 410.463 C 346.108 411.569,345.392 413.232,344.969 414.158 C 344.545 415.084,344.199 415.907,344.199 415.986 C 344.199 416.065,343.903 416.757,343.543 417.522 C 343.182 418.287,341.901 421.268,340.696 424.145 C 339.491 427.022,337.850 430.885,337.049 432.730 C 336.248 434.574,334.981 437.562,334.233 439.370 L 332.872 442.656 324.060 442.656 L 315.247 442.656 316.061 440.845 C 316.509 439.849,317.580 437.404,318.442 435.412 C 319.303 433.421,320.568 430.523,321.253 428.974 C 321.937 427.425,323.383 424.105,324.465 421.596 C 325.548 419.088,326.735 416.372,327.105 415.560 C 327.474 414.748,328.140 413.239,328.585 412.207 C 329.030 411.174,329.898 409.182,330.512 407.780 C 331.127 406.378,331.739 404.960,331.871 404.628 L 332.113 404.024 340.695 404.024 L 349.278 404.024 348.329 406.237 M197.787 476.123 C 206.898 476.163,221.808 476.163,230.919 476.123 C 240.030 476.084,232.575 476.052,214.353 476.052 C 196.130 476.052,188.675 476.084,197.787 476.123 M309.770 604.593 C 309.745 604.611,286.670 604.710,258.491 604.813 C 230.312 604.917,205.745 605.046,203.897 605.101 C 202.049 605.155,178.142 605.284,150.771 605.386 C 123.400 605.489,100.040 605.604,98.860 605.642 C 97.679 605.680,95.114 605.724,93.159 605.739 L 89.604 605.768 89.604 607.398 L 89.604 609.027 98.256 608.875 C 103.015 608.791,127.311 608.658,152.247 608.579 C 177.183 608.500,201.449 608.381,206.170 608.315 C 210.892 608.248,234.192 608.130,257.948 608.052 C 298.348 607.920,326.169 607.697,326.502 607.501 C 326.582 607.454,326.637 606.774,326.626 605.989 L 326.605 604.561 318.210 604.561 C 313.593 604.561,309.795 604.575,309.770 604.593 M161.929 610.571 C 161.202 611.374,161.448 613.023,162.372 613.540 C 163.237 614.023,163.858 613.757,164.389 612.676 C 165.243 610.937,163.188 609.179,161.929 610.571 M309.879 610.767 C 308.567 612.435,310.255 614.583,311.946 613.399 C 312.388 613.089,312.542 612.712,312.542 611.938 C 312.542 610.170,310.912 609.454,309.879 610.767 M109.937 615.675 C 104.772 617.346,105.007 623.900,110.305 625.939 C 112.613 626.828,112.944 627.094,112.944 628.057 C 112.944 630.341,109.055 630.292,107.824 627.993 C 107.548 627.475,107.443 627.577,106.500 629.275 L 105.476 631.120 106.460 632.014 C 110.004 635.233,115.734 633.763,116.671 629.394 C 117.458 625.725,116.220 623.433,112.956 622.517 C 110.953 621.955,110.153 621.261,110.396 620.294 C 110.728 618.968,112.275 618.778,113.877 619.866 C 114.432 620.242,114.904 620.514,114.927 620.469 C 115.010 620.311,115.954 617.697,116.073 617.298 C 116.375 616.283,111.800 615.073,109.937 615.675 M212.382 615.801 C 207.627 617.572,207.720 624.084,212.524 625.770 C 215.293 626.741,216.099 627.581,215.442 628.809 C 214.660 630.271,212.788 630.176,211.120 628.590 L 210.038 627.560 209.315 628.938 C 208.157 631.144,208.159 631.131,208.940 631.878 C 211.523 634.346,216.297 634.268,218.194 631.726 C 220.734 628.323,219.908 624.316,216.365 622.854 C 213.238 621.564,213.153 621.507,213.055 620.662 C 212.880 619.134,214.860 618.666,216.575 619.830 L 217.531 620.479 218.264 618.754 C 218.667 617.805,218.948 616.985,218.888 616.931 C 217.624 615.791,214.068 615.173,212.382 615.801 M258.548 615.643 C 256.531 616.146,254.984 618.344,254.885 620.845 C 254.783 623.425,255.640 624.635,258.350 625.738 C 260.926 626.787,261.242 626.976,261.394 627.555 C 262.081 630.183,258.469 630.647,256.529 628.180 L 255.998 627.506 255.025 629.357 L 254.053 631.208 255.178 632.171 C 258.368 634.902,263.392 633.946,264.954 630.312 C 266.360 627.042,265.258 624.048,262.196 622.816 C 259.468 621.719,259.029 621.435,258.939 620.710 C 258.721 618.959,261.003 618.660,262.932 620.188 C 263.401 620.559,263.548 620.354,264.348 618.205 C 265.043 616.336,261.695 614.858,258.548 615.643 M319.383 615.809 C 317.003 616.680,315.618 619.338,316.057 622.193 C 316.328 623.951,317.417 625.012,319.865 625.900 C 322.528 626.867,323.304 628.028,322.095 629.238 C 320.971 630.361,319.228 629.983,317.822 628.312 C 317.059 627.405,317.137 627.349,315.970 629.629 L 315.222 631.088 315.945 631.843 C 319.772 635.837,326.460 633.314,326.580 627.830 C 326.644 624.921,325.531 623.501,322.323 622.397 C 320.407 621.738,320.054 621.449,320.054 620.544 C 320.054 619.033,321.925 618.660,323.537 619.849 C 324.035 620.216,324.469 620.488,324.501 620.453 C 324.534 620.418,324.866 619.635,325.239 618.713 L 325.918 617.036 324.774 616.366 C 323.314 615.510,320.886 615.259,319.383 615.809 M198.323 615.905 L 195.842 615.983 195.842 624.557 L 195.842 633.132 197.720 633.132 L 199.598 633.132 199.602 629.846 L 199.606 626.559 201.318 629.779 L 203.030 632.998 205.473 633.132 C 206.816 633.206,207.915 633.234,207.915 633.194 C 207.914 633.154,207.591 632.611,207.195 631.987 C 206.004 630.107,203.867 626.357,203.948 626.289 C 203.990 626.254,204.415 626.026,204.894 625.783 C 206.696 624.867,207.594 622.271,206.956 619.822 C 206.076 616.444,204.469 615.714,198.323 615.905 M237.155 624.547 L 237.156 633.266 241.851 633.187 L 246.546 633.108 246.546 631.108 L 246.546 629.108 243.997 629.108 L 241.449 629.108 241.449 622.556 L 241.449 616.003 239.302 615.916 L 237.155 615.828 237.155 624.547 M282.160 615.906 L 279.812 615.983 279.812 624.625 L 279.811 633.266 281.815 633.178 L 283.820 633.090 283.895 630.009 L 283.970 626.928 285.578 630.030 L 287.186 633.132 289.535 633.132 C 290.827 633.132,291.885 633.083,291.885 633.023 C 291.885 632.963,290.986 631.424,289.887 629.603 C 288.149 626.721,287.957 626.280,288.407 626.206 C 290.775 625.816,292.058 621.656,290.706 618.753 C 289.555 616.281,287.864 615.717,282.160 615.906 M94.151 617.907 C 93.371 620.554,92.011 625.037,90.697 629.297 C 90.096 631.245,89.604 632.900,89.604 632.974 C 89.604 633.049,90.540 633.145,91.683 633.188 L 93.763 633.266 94.166 631.791 L 94.570 630.315 97.512 630.315 L 100.455 630.315 100.650 631.460 C 100.932 633.110,100.967 633.132,103.265 633.132 L 105.359 633.132 104.607 630.651 C 104.194 629.286,103.033 625.424,102.028 622.069 L 100.201 615.969 97.463 615.966 L 94.724 615.962 94.151 617.907 M125.577 620.858 C 125.704 631.731,126.515 633.334,132.029 633.614 C 135.835 633.807,137.744 632.857,138.927 630.181 C 139.254 629.442,139.365 627.831,139.450 622.602 L 139.558 615.962 137.385 615.962 L 135.211 615.962 135.205 621.261 C 135.196 628.545,134.846 629.656,132.566 629.636 C 130.320 629.616,130.114 628.966,130.114 621.882 L 130.114 615.962 127.817 615.962 L 125.520 615.962 125.577 620.858 M142.454 624.614 L 142.453 633.266 144.628 633.178 L 146.802 633.090 146.707 627.592 C 146.625 622.767,146.657 622.203,146.976 622.985 C 147.176 623.476,148.021 624.905,148.854 626.163 C 149.687 627.420,151.068 629.533,151.923 630.858 L 153.478 633.266 155.478 633.178 L 157.478 633.090 157.478 624.526 L 157.478 615.962 155.466 615.962 L 153.454 615.962 153.448 621.395 L 153.442 626.828 152.565 625.218 C 152.082 624.333,150.897 622.401,149.932 620.926 C 148.966 619.450,147.853 617.730,147.459 617.103 L 146.740 615.962 144.598 615.962 L 142.455 615.962 142.454 624.614 M160.698 624.547 L 160.698 633.132 162.978 633.132 L 165.258 633.132 165.258 624.547 L 165.258 615.962 162.978 615.962 L 160.698 615.962 160.698 624.547 M167.047 617.763 C 167.418 618.765,167.820 619.886,167.941 620.255 C 168.062 620.624,168.542 621.952,169.007 623.206 C 169.889 625.584,170.012 625.912,171.420 629.645 C 171.893 630.899,172.391 632.227,172.527 632.596 C 172.835 633.431,175.796 633.465,176.229 632.639 C 176.463 632.193,179.846 623.114,181.519 618.444 L 182.408 615.962 180.129 615.962 C 178.541 615.962,177.818 616.064,177.745 616.298 C 176.735 619.518,175.370 623.976,174.995 625.285 C 174.532 626.897,174.110 627.474,174.112 626.492 C 174.113 626.234,173.501 624.091,172.752 621.730 C 172.004 619.370,171.300 617.136,171.187 616.767 C 170.993 616.128,170.874 616.093,168.677 616.019 L 166.372 615.942 167.047 617.763 M183.501 624.614 L 183.500 633.266 188.330 633.187 L 193.159 633.109 193.159 631.242 L 193.159 629.376 190.476 629.376 L 187.793 629.376 187.793 627.901 L 187.793 626.425 190.208 626.425 L 192.622 626.425 192.622 624.547 L 192.622 622.669 190.208 622.669 L 187.793 622.669 187.793 621.194 L 187.793 619.718 190.476 619.718 L 193.159 619.718 193.159 617.840 L 193.159 615.962 188.330 615.962 L 183.501 615.962 183.501 624.614 M225.261 616.164 C 225.137 616.366,222.733 623.945,222.474 624.950 C 222.243 625.844,220.312 632.161,220.122 632.642 C 219.967 633.034,220.216 633.101,222.125 633.178 C 224.262 633.265,224.307 633.253,224.450 632.596 C 224.530 632.227,224.715 631.533,224.860 631.053 L 225.125 630.181 228.056 630.181 C 230.588 630.181,230.986 630.241,230.986 630.619 C 230.986 630.861,231.126 631.525,231.297 632.095 L 231.607 633.132 233.729 633.132 C 235.620 633.132,235.837 633.081,235.722 632.663 C 235.584 632.161,234.143 627.407,232.205 621.060 C 231.552 618.920,230.942 616.898,230.850 616.566 C 230.679 615.953,225.613 615.588,225.261 616.164 M267.740 624.535 L 267.740 633.108 272.435 633.187 L 277.130 633.266 277.130 631.321 L 277.129 629.376 274.581 629.376 L 272.032 629.376 272.032 627.901 L 272.032 626.425 274.447 626.425 L 276.861 626.425 276.861 624.547 L 276.861 622.669 274.447 622.669 L 272.032 622.669 272.032 621.194 L 272.032 619.718 274.581 619.718 L 277.129 619.718 277.129 617.840 L 277.129 615.962 272.435 615.962 L 267.740 615.962 267.740 624.535 M291.622 616.164 C 291.625 616.274,291.911 617.150,292.258 618.109 C 293.826 622.447,296.035 628.382,296.926 630.651 L 297.900 633.132 299.555 633.132 C 301.110 633.132,301.227 633.088,301.500 632.394 C 301.660 631.989,302.407 629.966,303.159 627.901 C 303.911 625.835,304.814 623.421,305.165 622.535 C 305.992 620.449,307.445 616.378,307.445 616.144 C 307.445 616.044,306.441 615.962,305.215 615.962 L 302.985 615.962 301.973 619.249 C 301.416 621.056,300.618 623.682,300.199 625.084 C 299.779 626.486,299.425 627.391,299.413 627.096 C 299.388 626.516,298.951 625.032,297.182 619.519 L 296.043 615.966 293.830 615.964 C 292.612 615.963,291.619 616.053,291.622 616.164 M308.786 624.547 L 308.786 633.132 310.932 633.132 L 313.078 633.132 313.078 624.547 L 313.078 615.962 310.932 615.962 L 308.786 615.962 308.786 624.547 M97.924 620.948 C 98.312 622.821,98.393 623.140,98.968 625.017 L 99.481 626.693 97.476 626.693 C 95.694 626.693,95.485 626.641,95.604 626.224 C 95.785 625.589,96.743 622.007,97.117 620.563 C 97.477 619.174,97.567 619.217,97.924 620.948 M228.950 623.003 C 229.480 624.884,229.913 626.484,229.913 626.558 C 229.913 626.778,226.158 626.712,226.151 626.492 C 226.142 626.209,227.870 619.464,227.935 619.530 C 227.964 619.560,228.421 621.123,228.950 623.003 M202.221 620.136 C 203.901 621.313,202.644 624.011,200.416 624.011 L 199.598 624.011 199.598 621.865 L 199.598 619.718 200.611 619.718 C 201.168 619.718,201.893 619.906,202.221 620.136 M286.499 620.294 C 287.893 621.593,286.825 623.985,284.842 624.002 L 283.836 624.011 283.836 621.865 L 283.836 619.718 284.859 619.718 C 285.534 619.718,286.091 619.914,286.499 620.294 "
              stroke="none" fill="#999999" fill-rule="evenodd"></path>
        <path id="path4"
              d="M216.697 1.131 C 216.471 1.615,216.033 2.586,215.722 3.286 C 214.659 5.684,214.129 6.844,212.766 9.746 C 212.016 11.343,211.402 12.688,211.402 12.733 C 211.402 12.779,210.873 13.947,210.226 15.328 C 209.580 16.710,208.359 19.349,207.514 21.194 C 206.669 23.038,204.977 26.720,203.755 29.376 C 202.533 32.032,200.599 36.258,199.458 38.766 C 198.317 41.274,196.965 44.232,196.454 45.339 C 195.942 46.445,194.918 48.679,194.177 50.302 C 193.437 51.925,192.465 54.038,192.017 54.997 C 191.054 57.064,188.755 62.113,187.070 65.862 C 185.913 68.436,184.145 72.289,182.022 76.861 C 181.474 78.042,180.813 79.490,180.552 80.080 C 179.664 82.093,178.620 84.370,177.572 86.581 C 176.997 87.795,176.526 88.840,176.526 88.903 C 176.526 88.967,175.969 90.206,175.288 91.659 C 173.606 95.249,172.650 97.326,171.293 100.335 C 170.661 101.737,169.423 104.453,168.541 106.372 C 166.882 109.981,163.192 118.041,161.909 120.858 C 161.505 121.744,160.816 123.253,160.376 124.212 C 159.936 125.171,158.306 128.732,156.754 132.126 C 155.202 135.520,153.161 139.966,152.218 142.007 C 151.275 144.048,150.503 145.759,150.503 145.808 C 150.503 145.858,149.839 147.302,149.027 149.016 C 148.216 150.730,147.552 152.181,147.552 152.241 C 147.552 152.301,146.888 153.758,146.076 155.478 C 145.265 157.199,144.601 158.644,144.601 158.689 C 144.601 158.772,143.305 161.615,141.912 164.588 C 140.429 167.752,138.967 170.947,138.967 171.022 C 138.967 171.065,138.438 172.230,137.791 173.611 C 137.144 174.993,135.622 178.296,134.409 180.952 C 133.196 183.608,131.839 186.566,131.395 187.525 C 130.951 188.484,129.989 190.584,129.259 192.192 C 128.528 193.800,127.533 195.973,127.047 197.021 C 126.033 199.207,125.616 200.115,123.589 204.561 C 122.781 206.331,121.674 208.746,121.129 209.926 C 120.584 211.107,119.531 213.400,118.788 215.023 C 118.045 216.647,116.959 219.001,116.374 220.255 C 115.789 221.509,115.149 222.897,114.952 223.340 C 114.754 223.783,114.041 225.336,113.366 226.791 C 112.692 228.246,112.140 229.473,112.140 229.516 C 112.140 229.559,111.583 230.783,110.903 232.235 C 110.223 233.688,108.786 236.808,107.709 239.168 C 106.633 241.529,105.307 244.427,104.764 245.607 C 104.220 246.787,103.529 248.296,103.229 248.960 C 102.928 249.624,102.094 251.415,101.375 252.941 C 100.655 254.466,100.067 255.754,100.067 255.803 C 100.067 255.852,99.403 257.295,98.592 259.009 C 97.780 260.723,97.116 262.179,97.116 262.244 C 97.116 262.309,96.331 264.002,95.372 266.006 C 94.413 268.010,93.628 269.692,93.628 269.743 C 93.628 269.831,89.405 279.002,87.162 283.785 C 86.587 285.011,86.117 286.063,86.117 286.124 C 86.117 286.184,85.527 287.474,84.806 288.992 C 84.085 290.509,83.251 292.294,82.952 292.958 C 82.653 293.622,81.902 295.252,81.283 296.579 C 80.664 297.907,79.822 299.718,79.413 300.604 C 79.004 301.489,78.220 303.179,77.670 304.359 C 77.120 305.540,76.382 307.140,76.028 307.914 C 74.392 311.501,74.003 312.339,72.595 315.307 C 71.769 317.050,71.093 318.518,71.093 318.571 C 71.093 318.623,70.505 319.914,69.786 321.439 C 69.066 322.964,68.204 324.816,67.868 325.553 C 66.361 328.870,65.707 330.289,64.528 332.797 C 63.835 334.272,63.108 335.842,62.914 336.284 C 62.719 336.727,62.245 337.802,61.860 338.673 C 61.475 339.544,61.191 340.285,61.230 340.321 C 61.269 340.356,81.070 340.474,105.231 340.583 C 129.393 340.691,149.162 340.842,149.162 340.918 C 149.162 340.994,148.918 341.914,148.620 342.962 C 148.321 344.011,147.961 345.292,147.818 345.808 C 147.676 346.325,147.210 348.015,146.782 349.564 C 146.045 352.237,145.235 355.148,142.749 364.051 C 139.861 374.397,137.339 383.438,136.014 388.196 C 135.459 390.188,134.379 394.051,133.613 396.781 C 131.527 404.220,130.525 407.813,129.463 411.670 C 128.934 413.588,128.381 415.580,128.233 416.097 C 128.013 416.865,126.552 422.041,125.279 426.559 C 125.134 427.076,124.231 430.335,123.273 433.803 C 121.331 440.833,121.361 440.724,120.092 445.205 C 119.591 446.975,118.665 450.295,118.035 452.582 C 117.405 454.869,116.362 458.612,115.717 460.899 C 115.072 463.186,114.428 465.480,114.286 465.996 C 114.144 466.512,113.604 468.444,113.088 470.288 C 112.571 472.133,111.660 475.392,111.064 477.532 C 110.468 479.671,109.507 483.112,108.928 485.178 C 107.692 489.591,104.036 502.694,103.259 505.497 C 102.480 508.307,102.411 508.556,100.883 514.017 C 100.120 516.747,99.331 519.584,99.131 520.322 C 98.930 521.060,98.274 523.414,97.673 525.553 C 97.072 527.693,96.029 531.435,95.356 533.870 C 94.682 536.304,94.029 538.598,93.903 538.967 C 93.778 539.336,93.290 541.087,92.819 542.857 C 92.348 544.628,91.559 547.465,91.065 549.162 C 90.571 550.858,89.842 553.454,89.446 554.930 C 88.249 559.389,88.083 559.986,84.104 574.111 C 83.585 575.956,82.151 581.087,80.919 585.513 C 76.923 599.865,72.302 616.420,71.371 619.718 C 69.074 627.852,68.848 628.660,68.142 631.254 C 67.318 634.282,67.147 634.902,66.288 637.961 C 64.775 643.347,64.680 643.710,64.760 643.790 C 64.804 643.834,65.243 642.993,65.734 641.922 C 66.588 640.061,67.402 638.302,69.617 633.535 C 70.165 632.354,71.070 630.362,71.627 629.108 C 72.735 626.615,73.602 624.728,75.490 620.700 C 76.170 619.247,76.727 618.009,76.727 617.948 C 76.727 617.886,77.391 616.444,78.203 614.743 C 79.014 613.042,79.678 611.605,79.678 611.548 C 79.678 611.459,80.900 608.791,84.230 601.610 C 84.709 600.577,85.556 598.706,86.112 597.451 C 86.668 596.197,87.688 593.964,88.379 592.488 C 89.070 591.013,89.744 589.564,89.877 589.269 C 90.771 587.285,95.548 576.824,97.657 572.233 C 98.504 570.389,100.583 565.862,102.277 562.173 C 103.971 558.484,105.739 554.650,106.206 553.653 C 106.673 552.656,107.520 550.784,108.088 549.495 C 108.656 548.205,109.687 545.942,110.378 544.467 C 111.069 542.991,111.743 541.543,111.876 541.247 C 112.861 539.060,114.555 535.365,117.103 529.846 C 118.023 527.854,119.046 525.620,119.376 524.883 C 119.707 524.145,120.339 522.757,120.781 521.797 C 121.224 520.838,121.888 519.390,122.258 518.578 C 122.627 517.767,123.291 516.318,123.733 515.359 C 124.176 514.400,124.993 512.589,125.551 511.335 C 126.658 508.844,127.523 506.960,129.413 502.926 C 130.094 501.474,130.651 500.250,130.651 500.207 C 130.651 500.163,131.179 498.998,131.826 497.616 C 133.549 493.935,136.262 488.033,138.964 482.093 C 139.668 480.543,140.637 478.431,141.117 477.398 C 143.560 472.136,144.064 471.033,144.064 470.953 C 144.064 470.905,144.678 469.559,145.429 467.962 C 146.179 466.364,147.041 464.514,147.344 463.850 C 147.646 463.186,148.615 461.073,149.496 459.155 C 150.378 457.237,151.387 455.034,151.740 454.259 C 153.061 451.356,153.847 449.637,155.999 444.936 C 157.216 442.280,158.484 439.504,158.819 438.766 C 159.154 438.028,159.908 436.398,160.496 435.144 C 161.521 432.959,162.141 431.609,163.327 428.974 C 163.627 428.310,164.485 426.459,165.235 424.862 C 165.986 423.264,166.600 421.916,166.600 421.866 C 166.600 421.777,169.334 415.838,171.455 411.319 C 172.031 410.093,172.502 409.048,172.502 408.996 C 172.502 408.945,173.057 407.714,173.736 406.262 C 176.618 400.100,177.062 399.138,177.062 399.056 C 177.062 399.009,177.726 397.568,178.538 395.854 C 179.349 394.140,180.013 392.692,180.013 392.638 C 180.013 392.583,180.557 391.375,181.221 389.954 C 181.885 388.533,182.428 387.323,182.428 387.265 C 182.428 387.206,183.284 385.370,184.329 383.184 C 185.375 380.997,186.475 378.665,186.773 378.001 C 187.071 377.337,187.676 376.009,188.119 375.050 C 188.562 374.091,189.922 371.133,191.142 368.478 C 192.363 365.822,193.723 362.864,194.166 361.905 C 198.638 352.217,202.908 342.886,203.619 341.247 C 204.099 340.141,204.584 339.115,204.698 338.967 C 204.811 338.820,205.510 337.371,206.250 335.748 C 206.990 334.125,208.104 331.710,208.726 330.382 C 209.348 329.054,210.189 327.243,210.595 326.358 C 212.198 322.863,212.866 321.420,214.121 318.749 C 214.838 317.220,215.426 315.929,215.426 315.881 C 215.426 315.832,216.102 314.367,216.928 312.625 C 218.378 309.567,218.889 308.464,220.327 305.298 C 220.696 304.487,221.535 302.676,222.193 301.274 C 222.851 299.873,223.740 297.947,224.169 296.995 C 224.599 296.043,225.266 294.625,225.652 293.843 L 226.354 292.421 181.051 292.421 C 156.134 292.421,135.748 292.322,135.748 292.201 C 135.748 292.079,135.916 291.446,136.122 290.792 C 136.328 290.139,136.886 288.156,137.361 286.385 C 137.836 284.614,138.382 282.683,138.575 282.093 C 138.768 281.502,139.430 279.148,140.045 276.861 C 140.661 274.574,141.628 271.073,142.193 269.081 C 142.758 267.089,143.775 263.467,144.452 261.033 C 146.001 255.469,147.830 248.929,149.292 243.729 C 149.915 241.516,150.942 237.834,151.576 235.547 C 152.210 233.260,153.256 229.517,153.901 227.230 C 154.546 224.943,155.189 222.649,155.331 222.133 C 155.473 221.616,155.999 219.745,156.501 217.975 C 157.002 216.204,157.923 212.884,158.546 210.597 C 159.169 208.310,159.776 206.137,159.895 205.768 C 160.013 205.399,160.560 203.467,161.111 201.476 C 161.661 199.484,162.743 195.620,163.514 192.891 C 164.286 190.161,165.308 186.479,165.786 184.708 C 166.263 182.938,166.752 181.187,166.871 180.818 C 167.092 180.137,167.778 177.687,171.835 163.112 C 173.087 158.612,174.528 153.481,175.037 151.710 C 175.545 149.940,176.286 147.284,176.683 145.808 C 177.905 141.260,180.733 131.116,181.319 129.175 C 181.587 128.286,182.404 125.365,185.783 113.213 C 188.339 104.023,188.238 104.381,189.537 99.799 C 190.574 96.142,190.629 95.943,191.813 91.616 C 192.258 89.993,192.733 88.303,192.868 87.860 C 193.004 87.418,193.562 85.426,194.108 83.434 C 194.655 81.442,195.632 77.941,196.280 75.654 C 197.683 70.704,197.753 70.453,198.787 66.667 C 199.230 65.044,199.774 63.112,199.996 62.374 C 200.217 61.636,200.775 59.645,201.235 57.948 C 201.695 56.251,202.283 54.138,202.542 53.253 C 203.156 51.155,204.448 46.549,207.243 36.486 C 210.352 25.297,211.421 21.470,211.702 20.523 C 211.834 20.080,212.426 17.968,213.019 15.828 C 213.612 13.689,214.577 10.248,215.163 8.182 C 217.240 0.863,217.610 -0.837,216.697 1.131 M212.364 49.966 C 212.091 51.036,211.234 54.205,210.461 57.009 C 209.688 59.812,208.297 64.883,207.371 68.276 C 206.444 71.670,205.453 75.292,205.168 76.325 C 204.883 77.357,204.429 79.048,204.157 80.080 C 203.885 81.113,203.491 82.562,203.281 83.300 C 202.945 84.480,202.354 86.632,201.072 91.348 C 200.871 92.086,200.459 93.595,200.156 94.702 C 199.852 95.808,199.191 98.247,198.685 100.122 L 197.766 103.530 199.918 106.024 C 201.102 107.396,202.450 108.940,202.913 109.457 C 203.377 109.973,204.481 111.241,205.366 112.274 C 206.251 113.307,207.040 114.212,207.120 114.286 C 207.200 114.359,210.035 117.619,213.421 121.529 C 216.806 125.439,219.897 129.001,220.290 129.443 C 221.101 130.358,227.215 137.384,233.231 144.314 C 241.427 153.757,242.918 155.469,243.057 155.600 C 243.136 155.674,243.923 156.579,244.806 157.612 C 245.689 158.645,246.472 159.551,246.546 159.624 C 246.728 159.806,250.036 163.586,250.890 164.588 C 252.176 166.095,255.528 169.953,255.669 170.087 C 255.747 170.161,256.153 170.644,256.573 171.160 C 256.993 171.677,257.776 172.582,258.314 173.172 C 258.852 173.763,260.016 175.089,260.900 176.120 C 261.785 177.152,262.948 178.480,263.485 179.071 C 264.022 179.663,264.805 180.570,265.224 181.087 C 265.644 181.603,266.055 182.086,266.139 182.160 C 266.222 182.233,267.120 183.260,268.136 184.440 C 271.048 187.826,273.317 190.407,275.798 193.159 C 277.061 194.561,278.965 196.704,280.027 197.923 C 281.089 199.141,281.958 200.093,281.958 200.038 C 281.958 199.984,280.559 196.874,278.848 193.129 C 277.137 189.383,275.582 185.895,275.392 185.379 C 275.202 184.863,274.657 183.595,274.180 182.562 C 273.704 181.529,272.497 178.873,271.500 176.660 C 269.237 171.642,268.462 169.937,267.310 167.448 C 266.808 166.365,266.398 165.436,266.398 165.384 C 266.398 165.332,265.929 164.287,265.356 163.061 C 264.783 161.835,264.042 160.228,263.711 159.490 C 263.379 158.753,262.356 156.519,261.436 154.527 C 260.517 152.535,259.382 150.030,258.914 148.961 C 258.446 147.892,257.464 145.739,256.731 144.178 C 255.998 142.617,255.399 141.290,255.399 141.228 C 255.399 141.166,254.964 140.179,254.432 139.035 C 253.900 137.891,253.163 136.291,252.793 135.480 C 252.423 134.668,251.760 133.219,251.318 132.260 C 250.876 131.301,249.815 128.947,248.960 127.029 C 248.105 125.111,246.957 122.575,246.408 121.395 C 245.859 120.215,244.893 118.102,244.262 116.700 C 242.184 112.090,240.085 107.467,239.451 106.103 C 239.108 105.366,238.554 104.158,238.221 103.421 C 236.551 99.728,236.113 98.764,235.599 97.653 C 234.965 96.281,230.224 85.844,227.494 79.812 C 226.493 77.599,225.015 74.339,224.210 72.569 C 223.405 70.798,222.473 68.746,222.138 68.008 C 221.804 67.270,221.062 65.659,220.490 64.427 C 219.918 63.195,219.450 62.152,219.450 62.110 C 219.450 62.067,218.907 60.878,218.243 59.467 C 217.579 58.055,217.036 56.845,217.036 56.777 C 217.036 56.710,216.624 55.768,216.122 54.685 C 215.620 53.602,214.720 51.660,214.122 50.369 C 212.820 47.553,212.973 47.588,212.364 49.966 M0.254 444.064 C 0.387 444.396,0.744 445.171,1.048 445.786 C 1.352 446.401,2.071 447.970,2.646 449.273 C 3.222 450.577,4.117 452.549,4.636 453.655 C 5.155 454.762,6.365 457.418,7.324 459.557 C 9.013 463.328,11.416 468.623,12.558 471.093 C 12.864 471.757,14.341 475.017,15.839 478.337 C 17.337 481.657,18.842 484.977,19.183 485.714 C 19.524 486.452,20.073 487.659,20.403 488.397 C 20.734 489.135,21.333 490.463,21.735 491.348 C 22.785 493.659,23.760 495.806,25.110 498.784 C 25.761 500.218,26.836 502.553,27.499 503.973 C 28.163 505.393,28.706 506.597,28.706 506.649 C 28.706 506.700,29.249 507.897,29.913 509.308 C 30.577 510.720,31.120 511.922,31.120 511.980 C 31.120 512.039,31.613 513.155,32.216 514.460 C 34.112 518.566,34.498 519.410,36.486 523.810 C 37.554 526.170,38.835 528.988,39.334 530.071 C 39.833 531.154,40.241 532.077,40.241 532.122 C 40.241 532.168,40.905 533.613,41.717 535.333 C 42.529 537.054,43.192 538.504,43.192 538.556 C 43.192 538.607,43.750 539.837,44.430 541.290 C 45.111 542.742,46.125 544.956,46.682 546.211 C 47.240 547.465,48.137 549.457,48.675 550.637 C 49.213 551.818,49.762 553.025,49.895 553.320 C 50.029 553.615,50.797 555.305,51.603 557.076 C 52.408 558.846,53.609 561.502,54.272 562.978 C 54.934 564.453,56.226 567.290,57.142 569.282 C 58.059 571.274,59.629 574.715,60.632 576.928 C 62.237 580.472,63.533 583.318,66.097 588.934 C 66.965 590.836,67.900 592.929,68.555 594.433 C 69.272 596.083,69.262 596.102,70.957 589.873 C 73.337 581.124,73.383 580.958,74.592 576.526 C 75.215 574.239,76.120 570.919,76.603 569.148 C 77.085 567.378,78.047 563.877,78.741 561.368 C 79.435 558.860,80.216 556.023,80.477 555.064 C 80.738 554.105,81.218 552.354,81.542 551.174 C 82.452 547.868,82.867 546.325,83.709 543.129 L 84.486 540.182 83.759 539.377 C 83.359 538.935,82.969 538.511,82.892 538.435 C 82.816 538.359,82.021 537.451,81.126 536.419 C 80.231 535.386,78.076 532.911,76.338 530.919 C 71.362 525.216,68.906 522.396,66.523 519.651 C 65.306 518.249,63.995 516.740,63.610 516.298 C 58.975 510.973,55.567 507.051,55.101 506.506 C 54.096 505.331,52.015 502.939,50.432 501.140 C 49.182 499.720,45.446 495.412,42.287 491.751 C 41.969 491.382,40.075 489.209,38.077 486.922 C 36.080 484.634,32.895 480.952,31.000 478.739 C 29.105 476.526,27.421 474.594,27.258 474.447 C 27.010 474.222,24.784 471.687,22.429 468.947 C 21.943 468.382,18.319 464.208,15.791 461.301 C 13.775 458.983,12.603 457.633,11.268 456.088 C 10.456 455.149,9.604 454.187,9.374 453.951 C 9.145 453.715,8.300 452.739,7.497 451.784 C 6.693 450.829,5.597 449.561,5.060 448.967 C 4.523 448.373,3.738 447.470,3.316 446.959 C 2.894 446.448,2.097 445.543,1.546 444.947 C 0.994 444.351,0.542 443.773,0.540 443.662 C 0.538 443.551,0.419 443.461,0.275 443.461 C 0.111 443.461,0.103 443.686,0.254 444.064 M160.491 455.198 C 159.882 456.489,159.089 458.209,158.730 459.021 C 158.370 459.832,157.686 461.341,157.209 462.374 C 156.732 463.407,154.800 467.632,152.915 471.764 C 151.029 475.895,148.931 480.464,148.251 481.916 C 147.572 483.368,147.015 484.596,147.015 484.644 C 147.015 484.692,146.244 486.401,145.302 488.442 C 142.462 494.592,140.414 499.052,139.777 500.469 C 139.446 501.207,138.872 502.475,138.500 503.286 C 137.907 504.584,137.169 506.209,135.889 509.040 C 135.685 509.491,134.966 511.050,134.292 512.505 C 133.617 513.961,133.065 515.189,133.065 515.234 C 133.065 515.280,132.452 516.625,131.703 518.222 C 130.954 519.820,130.178 521.489,129.979 521.932 C 128.462 525.303,121.009 541.618,119.991 543.796 C 119.052 545.805,115.106 554.390,110.928 563.514 C 109.711 566.170,108.385 569.068,107.979 569.953 C 107.573 570.838,106.654 572.811,105.935 574.336 C 105.216 575.861,104.628 577.147,104.628 577.193 C 104.628 577.279,103.054 580.717,101.678 583.635 C 101.261 584.520,100.652 585.848,100.324 586.586 C 99.996 587.324,98.959 589.590,98.019 591.622 C 97.080 593.654,96.311 595.435,96.311 595.580 C 96.311 595.751,113.469 595.819,145.438 595.775 L 194.565 595.708 195.748 593.025 C 196.398 591.549,197.103 589.973,197.313 589.522 C 197.523 589.071,198.110 587.743,198.616 586.571 C 199.122 585.399,199.899 583.655,200.342 582.696 C 200.785 581.737,201.537 580.047,202.013 578.940 C 202.489 577.834,203.180 576.264,203.548 575.453 C 203.916 574.641,204.322 573.706,204.450 573.374 L 204.682 572.770 171.020 572.770 C 152.505 572.770,137.357 572.694,137.357 572.600 C 137.357 572.451,140.783 564.794,143.043 559.893 C 143.485 558.934,144.008 557.787,144.204 557.344 C 144.401 556.901,145.114 555.348,145.789 553.893 C 146.463 552.438,147.015 551.204,147.015 551.151 C 147.015 551.099,147.336 550.358,147.727 549.505 C 148.505 547.812,153.490 536.766,154.208 535.144 L 154.654 534.138 178.545 534.138 L 202.437 534.138 203.487 531.791 C 204.064 530.500,205.236 527.960,206.091 526.147 C 206.946 524.334,207.646 522.807,207.646 522.754 C 207.646 522.701,208.310 521.250,209.121 519.529 C 209.933 517.808,210.597 516.361,210.597 516.312 C 210.597 516.264,211.201 514.941,211.938 513.373 C 212.676 511.805,213.280 510.404,213.280 510.259 C 213.280 510.090,204.775 509.972,189.431 509.928 L 165.583 509.859 166.649 507.579 C 167.236 506.325,167.937 504.816,168.207 504.225 C 169.970 500.375,171.974 496.114,174.706 490.409 C 175.448 488.860,176.358 486.928,176.729 486.117 C 177.099 485.305,177.967 483.434,178.657 481.958 C 179.347 480.483,180.257 478.521,180.680 477.599 L 181.449 475.922 214.496 475.922 L 247.542 475.922 248.686 473.307 C 249.315 471.868,250.073 470.148,250.372 469.484 C 252.197 465.419,257.545 453.101,257.545 452.960 C 257.545 452.900,235.957 452.850,209.572 452.850 L 161.599 452.850 160.491 455.198 M264.935 456.405 C 263.165 460.388,263.037 460.677,259.974 467.606 C 258.767 470.335,257.616 472.931,257.416 473.374 C 257.216 473.816,256.556 475.325,255.949 476.727 C 255.343 478.129,254.736 479.517,254.601 479.812 C 254.466 480.107,253.912 481.315,253.370 482.495 C 252.829 483.675,251.869 485.848,251.237 487.324 C 250.605 488.799,249.788 490.671,249.420 491.482 C 249.053 492.294,248.512 493.501,248.219 494.165 C 247.524 495.738,245.249 500.896,242.658 506.774 C 241.520 509.356,240.068 512.616,239.433 514.017 C 238.797 515.419,237.890 517.471,237.417 518.578 C 236.654 520.366,236.223 521.341,234.870 524.346 C 234.670 524.789,232.616 529.437,230.305 534.675 C 227.994 539.913,225.390 545.796,224.520 547.749 C 223.650 549.702,222.938 551.351,222.938 551.413 C 222.938 551.476,222.381 552.715,221.700 554.167 C 221.020 555.619,219.924 558.075,219.266 559.624 C 218.608 561.174,217.846 562.924,217.573 563.514 C 217.300 564.105,216.087 566.821,214.879 569.551 C 213.670 572.280,212.393 575.151,212.041 575.930 C 211.690 576.709,211.402 577.409,211.402 577.486 C 211.402 577.562,210.858 578.780,210.195 580.191 C 209.531 581.602,208.987 582.800,208.987 582.853 C 208.987 582.905,208.700 583.586,208.349 584.365 C 207.998 585.144,207.019 587.351,206.174 589.269 C 205.328 591.187,204.347 593.405,203.995 594.197 C 203.642 594.990,203.353 595.685,203.353 595.742 C 203.353 595.799,210.143 595.815,218.441 595.777 L 233.528 595.708 234.378 593.696 C 234.845 592.589,236.993 587.398,239.152 582.160 C 241.310 576.922,243.305 572.153,243.584 571.563 C 243.863 570.973,244.692 568.981,245.427 567.136 C 246.161 565.292,247.182 562.817,247.695 561.636 C 248.209 560.456,249.563 557.197,250.704 554.393 C 251.846 551.590,253.051 548.692,253.383 547.954 C 253.715 547.217,254.717 544.802,255.610 542.589 C 256.503 540.376,257.647 537.599,258.153 536.419 L 259.073 534.272 262.937 534.203 L 266.801 534.135 267.983 536.350 C 268.633 537.568,270.674 541.281,272.519 544.601 C 274.365 547.921,276.198 551.241,276.595 551.979 C 276.991 552.716,277.592 553.803,277.930 554.393 C 278.268 554.983,280.141 558.364,282.092 561.905 C 284.042 565.446,285.943 568.887,286.314 569.551 C 286.686 570.215,287.593 571.844,288.329 573.172 C 290.812 577.648,291.155 578.264,292.293 580.282 C 292.917 581.388,293.852 583.078,294.371 584.038 C 294.890 584.997,296.574 588.060,298.113 590.844 L 300.911 595.907 316.713 595.859 C 334.029 595.806,332.923 595.876,332.271 594.881 C 332.016 594.492,331.412 593.432,330.930 592.526 C 330.196 591.146,327.063 585.685,326.215 584.306 C 326.079 584.085,324.982 582.213,323.777 580.148 C 322.572 578.082,320.596 574.702,319.384 572.636 C 314.455 564.232,310.711 557.813,310.072 556.673 C 309.700 556.009,308.578 554.078,307.579 552.381 C 306.580 550.684,305.459 548.753,305.089 548.089 C 304.720 547.425,304.212 546.579,303.962 546.211 C 303.712 545.842,303.433 545.359,303.340 545.137 C 303.248 544.916,301.737 542.321,299.981 539.370 L 296.789 534.004 312.247 533.935 L 327.705 533.866 328.081 532.996 C 328.728 531.499,329.739 529.260,330.818 526.935 C 331.390 525.703,331.858 524.650,331.858 524.596 C 331.858 524.541,332.145 523.859,332.496 523.080 C 332.847 522.301,333.861 520.033,334.748 518.041 C 335.636 516.049,336.670 513.756,337.045 512.944 C 337.421 512.133,339.553 507.364,341.782 502.347 C 344.012 497.331,345.998 492.864,346.195 492.421 C 346.393 491.979,347.539 489.383,348.743 486.653 C 349.948 483.924,351.106 481.328,351.317 480.885 C 351.667 480.151,353.623 475.716,357.350 467.203 C 358.125 465.433,359.165 463.100,359.661 462.019 C 360.157 460.939,360.563 460.012,360.563 459.960 C 360.563 459.908,360.986 458.950,361.502 457.832 C 362.019 456.714,362.441 455.739,362.441 455.665 C 362.441 455.591,362.732 454.928,363.088 454.191 L 363.734 452.850 315.124 452.850 L 266.515 452.850 264.935 456.405 M323.733 477.599 C 323.660 477.783,322.091 481.254,320.248 485.312 C 318.404 489.370,316.567 493.414,316.165 494.299 C 315.764 495.184,315.263 496.281,315.053 496.735 C 314.842 497.190,313.423 500.329,311.899 503.710 L 309.128 509.859 290.192 509.928 L 271.256 509.997 272.214 507.916 C 272.741 506.771,273.867 504.266,274.716 502.347 C 275.564 500.429,278.126 494.755,280.409 489.738 C 282.692 484.722,284.896 479.863,285.308 478.940 L 286.056 477.264 304.961 477.264 C 319.978 477.264,323.839 477.333,323.733 477.599 "
              stroke="none" fill="#d7b56d" fill-rule="evenodd"></path>
    </g>
</svg>